<svg xmlns="http://www.w3.org/2000/svg" viewBox="0 0 109.08 116.35"><defs><style>.cls-1{fill:#ea5b0c;stroke:#1d1d1b;stroke-miterlimit:10;stroke-width:2px;}</style></defs><g id="katman_2" data-name="katman 2"><g id="katman_1-2" data-name="katman 1"><path class="cls-1" d="M3.6,3.48C7.45-1.74,22.81,2.09,32.41,7.54a69.77,69.77,0,0,1,17.73,14c1.46,1.75,2.24,2.93,4.07,4.07,7,4.36,16.94.16,19.94-1.11,15.64-6.63,19.52-19,28.45-17.73.74.11,3.51.52,4.8,2.58,1.79,2.88-.38,7.25-1.85,10-9,16.77-19.19,22.59-24.75,38A60.08,60.08,0,0,0,79,63.69c-3.52,14.92,1,20.6-1.3,27.71-2.6,7.9-11.64,11-29.73,17.17C30.15,114.65,20.49,118,13,112.82,7.89,109.3,6.09,101.67,2.49,86.41.3,77.1.66,73.51,2.68,71.63c2.41-2.24,6.09-1,10-.73,12,.86,27.71-7.22,32.14-19.58,3-8.39,1.44-20.47-5.73-26.6C28.73,15.9,13.27,25,5.63,15.49,2.75,11.9,1.51,6.32,3.6,3.48Z"/></g></g></svg>