<svg xmlns="http://www.w3.org/2000/svg" viewBox="0 0 102.52 76.6"><defs><style>.cls-1{fill:#ea5b0c;stroke:#1d1d1b;stroke-miterlimit:10;stroke-width:2px;}</style></defs><g id="katman_2" data-name="katman 2"><g id="katman_1-2" data-name="katman 1"><path class="cls-1" d="M2.47,47.18c3.07,6.94,8.45,10.6,16.9,16.34,4.11,2.8,8.93,4.82,18.56,8.87,7,2.93,10.72,4.08,14.13,2.49,2.65-1.24,3.71-3.5,4.71-5,8.42-12.58,34.86-4,42.66-15.79,1.25-1.9,1.67-6.28,1.94-9.42a42.21,42.21,0,0,0,0-6.92c-1.28-18.61-2.79-20.63-1.66-27.71.75-4.72,1.68-5.48.83-6.92-2.67-4.53-14-.61-31.58.55-8.75.57-5.48-.42-27.43-.55C13.78,3,5.66,4.54,3,9.78c-.49,1-.59,1.69-.83,5C.89,33,.24,42.14,2.47,47.18Zm8.31-32.42c1.6-1.14,2.43-.63,9.23-1.11,14.75-1,18.9-4,21.8-1.47s1,7.36,0,15.88c-2.59,22.22,5.22,31.81.37,35.46-5.39,4.06-20.85-3.38-28.45-15.14S4.2,19.43,10.78,14.76Z"/></g></g></svg>