<svg xmlns="http://www.w3.org/2000/svg" viewBox="0 0 154.56 67.64"><defs><style>.cls-1,.cls-2{fill:#ea5b0c;}.cls-1{stroke:#1d1d1b;stroke-miterlimit:10;stroke-width:2px;}.cls-3{fill:#1d1d1b;}</style></defs><g id="katman_2" data-name="katman 2"><g id="katman_1-2" data-name="katman 1"><path class="cls-1" d="M9.49,29.81A54.91,54.91,0,0,0,22.07,49.39C44.27,71.31,86,72,128,53.3a76.09,76.09,0,0,0,18.89-25.54A75.84,75.84,0,0,0,153.49,1H1.32Q5.41,15.4,9.49,29.81Z"/><path class="cls-2" d="M25.7,50.51c1.05-2.16-.67-4.6-2.28-6.39L16.16,36a27.76,27.76,0,0,0,6.5,12.11"/><path class="cls-3" d="M27.86,51.77a6.53,6.53,0,0,0,0-5.45A15,15,0,0,0,25,42.14q-3.53-3.95-7.07-7.87a2.51,2.51,0,0,0-3-.39,2.58,2.58,0,0,0-1.15,2.82,30.79,30.79,0,0,0,7.14,13.21,2.54,2.54,0,0,0,3.54,0,2.56,2.56,0,0,0,0-3.54c-.39-.42-.76-.85-1.12-1.29L23,44.7c.12.15.12.16,0,0l-.5-.69a27.63,27.63,0,0,1-1.72-2.8c-.25-.46-.49-.93-.71-1.41,0-.08-.41-.93-.24-.52l-.27-.68a28.46,28.46,0,0,1-1-3.25L14.39,37.8l6.12,6.81a21.44,21.44,0,0,1,2.38,2.88,6.85,6.85,0,0,1,.46.84c-.21-.44.11.39.14.48.06.29.07.29,0,0a3.09,3.09,0,0,1,0,.43c.06-.3.06-.31,0,0s-.08.29,0,0a2.56,2.56,0,0,0,.9,3.42,2.52,2.52,0,0,0,3.42-.9Z"/><path class="cls-2" d="M138,39.76c-2.25-.86-4.53,1.07-6.17,2.84l-7.39,8A27.82,27.82,0,0,0,135.94,43"/><path class="cls-3" d="M138.69,37.35c-3.56-1.22-6.7,1.45-9,3.87l-7,7.57A2.5,2.5,0,0,0,125.13,53a30.61,30.61,0,0,0,12.57-8.2,2.5,2.5,0,1,0-3.53-3.54,29.41,29.41,0,0,1-2.4,2.34l-.69.58-.35.28c.21-.17.2-.16,0,0-.43.31-.85.61-1.28.9A28.13,28.13,0,0,1,126.51,47c-.47.23-1,.45-1.43.66.51-.22-.35.13-.44.16l-.84.31,2.43,4.18,6.32-6.8c.49-.52,1-1.05,1.46-1.57l.74-.71c.11-.1.72-.59.38-.34a6.86,6.86,0,0,1,.85-.55c.12-.08.26-.14.38-.21s-.34.09.1,0l.4-.1c-.2.07-.36,0-.06,0,.1,0,.6.1.28,0s.28.11.28.11a2.52,2.52,0,0,0,3.08-1.74,2.57,2.57,0,0,0-1.75-3.08Z"/></g></g></svg>