<svg xmlns="http://www.w3.org/2000/svg" viewBox="0 0 73.06 97.49"><defs><style>.cls-1{fill:#ea5b0c;stroke:#1d1d1b;stroke-miterlimit:10;stroke-width:2px;}</style></defs><g id="katman_2" data-name="katman 2"><g id="katman_1-2" data-name="katman 1"><path class="cls-1" d="M71.38,19.88c2.09-3.69-.93-10.19-5-13.85C60.54.76,52,.91,43.68,1.05a61.68,61.68,0,0,0-7.21.55c-7.82,1-14.09,1.88-18.83,6.09-2.5,2.22-4.07,5.91-7.21,13.3A107.09,107.09,0,0,0,6,33.74,126.89,126.89,0,0,0,2.68,49.81C1.14,60.39,1.08,68.89,1,78.06c0,4.21,0,13.3,0,13.3l6.65,5c3.66.13,6.61.07,8.59,0,3.65-.13,4.1-.32,6.79-.28,3.37.05,3.87.36,7.62.42,2.15,0,3.75,0,5.81-.14,2.33-.11,3.25-.21,7.62-.56,2-.15,5.48-.43,9.42-.69,4.16-.27,6.24-.41,7.21-.41,5.57,0,6.39.79,7.75-.14,2.59-1.77,2.88-6.89,1.25-10.53-.28-.62-1.84-4.67-4.85-5.13-1.31-.2-2,.42-3.46.84-2.91.82-5.46-.11-9.14-1.53a38.63,38.63,0,0,1-11.09-6.65c-4-3.31-7.11-5.93-9.14-10.25-.16-.35-4.13-9.11-.55-17.87,4.43-10.86,18.9-17.91,30.06-19.94C66,22.68,69.8,22.68,71.38,19.88Z"/></g></g></svg>