<svg xmlns="http://www.w3.org/2000/svg" viewBox="0 0 103.49 80.12"><defs><style>.cls-1{fill:#ea5b0c;stroke:#1d1d1b;stroke-miterlimit:10;stroke-width:2px;}</style></defs><g id="katman_2" data-name="katman 2"><g id="katman_1-2" data-name="katman 1"><path class="cls-1" d="M3.2,75.75c2.74,2.34,7,2.42,15.52,2.59,2.43,0,5.06-.09,10.34-.37s8.92-.57,10-.65c5-.37,10.31-.4,23.23.28,26.67,1.4,32.46,3,35.83-1.11,2.66-3.25,1.91-7.76,1.47-11.08C94.88,29.74,109,8.7,98.51,1.51c-1.61-1.1-1.17-.08-27,0-9.44,0-14.16,0-17,0-11.11-.17-11.37-.5-13.67,0-6.53,1.41-7.45,4.74-18.84,14S6.25,25.8,3.57,32.54c-.69,1.73-.89,2.9-1.48,10.71C0,71.34,1.24,74.08,3.2,75.75ZM8.93,37.48c1.4-2.68,3-3.6,6.92-6.79C32.11,17.58,37.57,7.29,40.37,8.8c1.47.8.49,3.91-.27,12.75a179.23,179.23,0,0,0-.42,24.79c.86,14.77,4.23,21.78.42,24.66-.79.59-2.93.67-7.21.83-7.84.29-8.57-.7-15.1-.42-4.68.2-5.85.78-7.2-.27-2.53-2-1.78-6.66-1.38-10.25C10.76,47,5.74,43.56,8.93,37.48Z"/></g></g></svg>