<svg xmlns="http://www.w3.org/2000/svg" viewBox="0 0 73.06 97.49"><defs><style>.cls-1{fill:#ea5b0c;stroke:#1d1d1b;stroke-miterlimit:10;stroke-width:2px;}</style></defs><g id="katman_2" data-name="katman 2"><g id="katman_1-2" data-name="katman 1"><path class="cls-1" d="M1.68,19.88C-.41,16.19,2.61,9.69,6.67,6,12.52.76,21.1.91,29.38,1.05a61.53,61.53,0,0,1,7.21.55c7.82,1,14.09,1.88,18.84,6.09,2.49,2.22,4.06,5.91,7.2,13.3a105.22,105.22,0,0,1,4.43,12.75,126.15,126.15,0,0,1,3.33,16.07C71.92,60.39,72,68.89,72.05,78.06c0,4.21,0,13.3,0,13.3l-6.65,5c-3.66.13-6.61.07-8.59,0-3.64-.13-4.1-.32-6.79-.28-3.37.05-3.87.36-7.61.42-2.16,0-3.76,0-5.82-.14-2.33-.11-3.25-.21-7.62-.56-2-.15-5.47-.43-9.42-.69-4.16-.27-6.23-.41-7.2-.41-5.57,0-6.4.79-7.76-.14C2,92.78,1.71,87.66,3.34,84c.28-.62,1.84-4.67,4.85-5.13,1.31-.2,2,.42,3.46.84,2.91.82,5.46-.11,9.15-1.53a38.75,38.75,0,0,0,11.08-6.65c4-3.31,7.11-5.93,9.14-10.25.17-.35,4.13-9.11.55-17.87C37.14,32.57,22.68,25.52,11.51,23.49,7.08,22.68,3.26,22.68,1.68,19.88Z"/></g></g></svg>