<svg xmlns="http://www.w3.org/2000/svg" viewBox="0 0 154.56 67.64"><defs><style>.cls-1,.cls-2{fill:#ea5b0c;}.cls-1{stroke:#1d1d1b;stroke-miterlimit:10;stroke-width:2px;}.cls-3{fill:#1d1d1b;}</style></defs><g id="katman_2" data-name="katman 2"><g id="katman_1-2" data-name="katman 1"><path class="cls-1" d="M145.06,37.83a54.69,54.69,0,0,0-12.58-19.58c-22.2-21.92-64-22.64-105.89-3.91A75.82,75.82,0,0,0,1.06,66.64H153.23Q149.15,52.23,145.06,37.83Z"/><path class="cls-2" d="M135.59,29.06c1.06-2.16-.66-4.6-2.27-6.39l-7.26-8.08a27.71,27.71,0,0,0,6.49,12.1"/><path class="cls-3" d="M137.75,30.33a6.51,6.51,0,0,0,0-5.46,15.43,15.43,0,0,0-2.9-4.18q-3.52-3.95-7.07-7.87a2.52,2.52,0,0,0-3-.39,2.57,2.57,0,0,0-1.14,2.82,30.68,30.68,0,0,0,7.14,13.21,2.51,2.51,0,0,0,3.53,0,2.56,2.56,0,0,0,0-3.54c-.38-.42-.75-.84-1.11-1.29-.11-.12-.21-.25-.31-.38.12.16.13.16,0,0l-.5-.69a30.89,30.89,0,0,1-1.72-2.8c-.25-.47-.48-.94-.71-1.42,0-.08-.41-.93-.23-.52-.1-.22-.19-.45-.27-.67a26.75,26.75,0,0,1-1-3.26l-4.18,2.44,6.11,6.8A22.23,22.23,0,0,1,132.79,26c.16.27.32.55.46.84-.21-.44.1.39.14.48.05.3.06.29,0,0a2.06,2.06,0,0,1,0,.43c.06-.3.06-.31,0,0s-.08.29,0,0a2.57,2.57,0,0,0,.9,3.42,2.53,2.53,0,0,0,3.42-.89Z"/><path class="cls-2" d="M32.54,16.53c-2.25-.86-4.52,1.08-6.16,2.84l-7.4,8a27.66,27.66,0,0,0,11.47-7.56"/><path class="cls-3" d="M33.21,14.12c-3.56-1.22-6.71,1.45-9,3.87l-7,7.57a2.5,2.5,0,0,0,2.44,4.18,30.68,30.68,0,0,0,12.57-8.2A2.5,2.5,0,0,0,28.68,18a26.62,26.62,0,0,1-2.4,2.35l-.69.57-.35.28c.21-.16.2-.16,0,0-.42.3-.84.61-1.28.89A27.12,27.12,0,0,1,21,23.79c-.47.23-.94.45-1.42.66.5-.22-.35.13-.44.16l-.84.31,2.43,4.18,6.31-6.8c.49-.52,1-1.05,1.47-1.56.24-.25.48-.49.74-.72s.72-.59.38-.34a7.57,7.57,0,0,1,.84-.55l.39-.2c.24-.14-.35.08.09,0a2.62,2.62,0,0,0,.4-.11c-.19.07-.35,0-.05,0,.09,0,.6.11.28,0s.28.11.28.11A2.5,2.5,0,0,0,35,17.2a2.57,2.57,0,0,0-1.74-3.08Z"/></g></g></svg>