<svg xmlns="http://www.w3.org/2000/svg" viewBox="0 0 102.52 76.6"><defs><style>.cls-1{fill:#ea5b0c;stroke:#1d1d1b;stroke-miterlimit:10;stroke-width:2px;}</style></defs><g id="katman_2" data-name="katman 2"><g id="katman_1-2" data-name="katman 1"><path class="cls-1" d="M100.32,14.76c-.23-3.29-.33-4-.83-5C96.86,4.54,88.74,3,61,3.13,39,3.26,42.3,4.25,33.56,3.68,15.92,2.52,4.65-1.4,2,3.13c-.85,1.44.09,2.2.84,6.92,1.12,7.08-.39,9.1-1.67,27.71a43.37,43.37,0,0,0,0,6.92c.27,3.14.69,7.52,1.94,9.42,7.8,11.82,34.25,3.21,42.67,15.79,1,1.49,2,3.75,4.71,5,3.4,1.59,7.15.44,14.13-2.49,9.63-4,14.45-6.07,18.56-8.87,8.45-5.74,13.82-9.4,16.9-16.34C102.28,42.14,101.63,33,100.32,14.76ZM88.78,48.38c-7.6,11.76-23,19.2-28.44,15.14-4.86-3.65,3-13.24.37-35.46-1-8.52-2.87-13.36,0-15.88s7,.43,21.79,1.47c6.8.48,7.63,0,9.24,1.11C98.31,19.43,96.38,36.62,88.78,48.38Z"/></g></g></svg>